<svg width="41" height="12" viewBox="0 0 41 12" fill="none" xmlns="http://www.w3.org/2000/svg">
<path d="M10.45 1.33333H0.55C0.2475 1.33333 0 1.03333 0 0.666667C0 0.3 0.2475 0 0.55 0H10.45C10.7525 0 11 0.3 11 0.666667C11 1.03333 10.7525 1.33333 10.45 1.33333ZM11 4.23333C11 3.86667 10.7525 3.56667 10.45 3.56667H0.55C0.2475 3.56667 0 3.86667 0 4.23333C0 4.6 0.2475 4.9 0.55 4.9H10.45C10.7525 4.9 11 4.6 11 4.23333ZM11 7.78333C11 7.41667 10.7525 7.11667 10.45 7.11667H0.55C0.2475 7.11667 0 7.41667 0 7.78333C0 8.15 0.2475 8.45 0.55 8.45H10.45C10.7525 8.45 11 8.15 11 7.78333ZM6.05 11.3333C6.05 10.9667 5.8025 10.6667 5.5 10.6667H0.59125C0.28875 10.6667 0.04125 10.9667 0.04125 11.3333C0.04125 11.7 0.28875 12 0.59125 12H5.5C5.8025 12 6.05 11.7 6.05 11.3333Z" fill="white"/>
<path d="M25.45 1.33333H15.55C15.2475 1.33333 15 1.03333 15 0.666667C15 0.3 15.2475 0 15.55 0H25.45C25.7525 0 26 0.3 26 0.666667C26 1.03333 25.7525 1.33333 25.45 1.33333ZM26 4.23333C26 3.86667 25.7525 3.56667 25.45 3.56667H15.55C15.2475 3.56667 15 3.86667 15 4.23333C15 4.6 15.2475 4.9 15.55 4.9H25.45C25.7525 4.9 26 4.6 26 4.23333ZM26 7.78333C26 7.41667 25.7525 7.11667 25.45 7.11667H15.55C15.2475 7.11667 15 7.41667 15 7.78333C15 8.15 15.2475 8.45 15.55 8.45H25.45C25.7525 8.45 26 8.15 26 7.78333ZM21.05 11.3333C21.05 10.9667 20.8025 10.6667 20.5 10.6667H15.5913C15.2888 10.6667 15.0413 10.9667 15.0413 11.3333C15.0413 11.7 15.2888 12 15.5913 12H20.5C20.8025 12 21.05 11.7 21.05 11.3333Z" fill="white"/>
<path d="M40.45 1.33333H30.55C30.2475 1.33333 30 1.03333 30 0.666667C30 0.3 30.2475 0 30.55 0H40.45C40.7525 0 41 0.3 41 0.666667C41 1.03333 40.7525 1.33333 40.45 1.33333ZM41 4.23333C41 3.86667 40.7525 3.56667 40.45 3.56667H30.55C30.2475 3.56667 30 3.86667 30 4.23333C30 4.6 30.2475 4.9 30.55 4.9H40.45C40.7525 4.9 41 4.6 41 4.23333ZM41 7.78333C41 7.41667 40.7525 7.11667 40.45 7.11667H30.55C30.2475 7.11667 30 7.41667 30 7.78333C30 8.15 30.2475 8.45 30.55 8.45H40.45C40.7525 8.45 41 8.15 41 7.78333ZM36.05 11.3333C36.05 10.9667 35.8025 10.6667 35.5 10.6667H30.5913C30.2888 10.6667 30.0413 10.9667 30.0413 11.3333C30.0413 11.7 30.2888 12 30.5913 12H35.5C35.8025 12 36.05 11.7 36.05 11.3333Z" fill="white"/>
</svg>
