<svg width="11" height="12" viewBox="0 0 11 12" fill="none" xmlns="http://www.w3.org/2000/svg">
<path d="M10.45 1.33333H0.55C0.2475 1.33333 0 1.03333 0 0.666667C0 0.3 0.2475 0 0.55 0H10.45C10.7525 0 11 0.3 11 0.666667C11 1.03333 10.7525 1.33333 10.45 1.33333ZM11 4.23333C11 3.86667 10.7525 3.56667 10.45 3.56667H0.55C0.2475 3.56667 0 3.86667 0 4.23333C0 4.6 0.2475 4.9 0.55 4.9H10.45C10.7525 4.9 11 4.6 11 4.23333ZM11 7.78333C11 7.41667 10.7525 7.11667 10.45 7.11667H0.55C0.2475 7.11667 0 7.41667 0 7.78333C0 8.15 0.2475 8.45 0.55 8.45H10.45C10.7525 8.45 11 8.15 11 7.78333ZM6.05 11.3333C6.05 10.9667 5.8025 10.6667 5.5 10.6667H0.59125C0.28875 10.6667 0.04125 10.9667 0.04125 11.3333C0.04125 11.7 0.28875 12 0.59125 12H5.5C5.8025 12 6.05 11.7 6.05 11.3333Z" fill="white"/>
</svg>
