<svg width="25" height="12" viewBox="0 0 25 12" fill="none" xmlns="http://www.w3.org/2000/svg">
<path d="M10.45 1.33333H0.55C0.2475 1.33333 0 1.03333 0 0.666667C0 0.3 0.2475 0 0.55 0H10.45C10.7525 0 11 0.3 11 0.666667C11 1.03333 10.7525 1.33333 10.45 1.33333ZM11 4.23333C11 3.86667 10.7525 3.56667 10.45 3.56667H0.55C0.2475 3.56667 0 3.86667 0 4.23333C0 4.6 0.2475 4.9 0.55 4.9H10.45C10.7525 4.9 11 4.6 11 4.23333ZM11 7.78333C11 7.41667 10.7525 7.11667 10.45 7.11667H0.55C0.2475 7.11667 0 7.41667 0 7.78333C0 8.15 0.2475 8.45 0.55 8.45H10.45C10.7525 8.45 11 8.15 11 7.78333ZM6.05 11.3333C6.05 10.9667 5.8025 10.6667 5.5 10.6667H0.59125C0.28875 10.6667 0.04125 10.9667 0.04125 11.3333C0.04125 11.7 0.28875 12 0.59125 12H5.5C5.8025 12 6.05 11.7 6.05 11.3333Z" fill="white"/>
<path d="M24.45 1.33333H14.55C14.2475 1.33333 14 1.03333 14 0.666667C14 0.3 14.2475 0 14.55 0H24.45C24.7525 0 25 0.3 25 0.666667C25 1.03333 24.7525 1.33333 24.45 1.33333ZM25 4.23333C25 3.86667 24.7525 3.56667 24.45 3.56667H14.55C14.2475 3.56667 14 3.86667 14 4.23333C14 4.6 14.2475 4.9 14.55 4.9H24.45C24.7525 4.9 25 4.6 25 4.23333ZM25 7.78333C25 7.41667 24.7525 7.11667 24.45 7.11667H14.55C14.2475 7.11667 14 7.41667 14 7.78333C14 8.15 14.2475 8.45 14.55 8.45H24.45C24.7525 8.45 25 8.15 25 7.78333ZM20.05 11.3333C20.05 10.9667 19.8025 10.6667 19.5 10.6667H14.5913C14.2888 10.6667 14.0413 10.9667 14.0413 11.3333C14.0413 11.7 14.2888 12 14.5913 12H19.5C19.8025 12 20.05 11.7 20.05 11.3333Z" fill="white"/>
</svg>
